<?xml version="1.0" encoding="utf-8"?>
<!-- Generator: Adobe Illustrator 16.0.4, SVG Export Plug-In . SVG Version: 6.00 Build 0)  -->
<!DOCTYPE svg PUBLIC "-//W3C//DTD SVG 1.1 Tiny//EN" "http://www.w3.org/Graphics/SVG/1.1/DTD/svg11-tiny.dtd">
<svg version="1.1" baseProfile="tiny" id="_x31_" xmlns="http://www.w3.org/2000/svg" xmlns:xlink="http://www.w3.org/1999/xlink"
	 x="0px" y="0px" width="169.684px" height="150.756px" viewBox="0 0 169.684 150.756" xml:space="preserve">
<path fill="#5E4D99" d="M162.523,141.229c-16.646-7.421-14.792-26.108-10.783-40.962c4.119-15.255,11.532-29.158,17.68-43.618
	c1.135-2.669-1.631-4.815-3.926-3.029c-22.31,17.352-42.149,38.09-66.962,52.033c-15.52,8.721-33.056,14.987-50.536,18.252
	c-17.082,3.191-40.205,2.567-43.029-19.147c-1.586-12.195,8.109-21.454,19.635-22.752c11.912-1.341,25.156,3.271,35.817,8.122
	c30.43,13.847,53.498,39.294,79.075,60.027c2.48,2.011,6.041-1.504,3.535-3.535c-18.463-14.967-35.386-31.721-54.691-45.662
	c-17.957-12.967-41.98-26.402-65.035-23.806C2.632,79.48-6.773,102.859,5.426,119.433c9.782,13.289,29.603,11.821,43.899,9.295
	c17.911-3.165,35.825-9.97,51.73-18.756c25.25-13.949,45.375-35.239,67.974-52.815c-1.309-1.01-2.618-2.02-3.926-3.029
	c-6.772,15.93-14.861,31.209-19.041,48.128c-4.005,16.211-3.428,35.55,13.938,43.292
	C162.918,146.848,165.464,142.541,162.523,141.229L162.523,141.229z"/>
<path fill="#5E4D99" d="M31.262,100.888c0.667,0,1.333,0,2,0c1.363,0,2.5-1.137,2.5-2.5s-1.137-2.5-2.5-2.5c-0.667,0-1.333,0-2,0
	c-1.363,0-2.5,1.137-2.5,2.5S29.899,100.888,31.262,100.888L31.262,100.888z"/>
<path fill="#5E4D99" d="M33.762,98.388c0.014-0.417-0.149,0.737-0.017,0.129c0.031-0.144,0.07-0.286,0.104-0.429
	c0.108-0.456,0.201-0.946,0.146-1.415c-0.189-1.586-1.064-2.702-2.472-3.444c-1.267-0.668-2.632-0.268-3.42,0.897
	c-0.072,0.106-0.631,0.867-0.193,0.304c-0.141,0.18-0.294,0.349-0.458,0.509c-0.306,0.3,0.587-0.375,0.159-0.128
	c0.824-0.477,1.755-0.271,2.608,0.393c0.233,0.181,0.379,0.566,0.522,0.914c-0.024-0.058-0.037-0.122-0.049-0.184
	c-0.049-0.258,0.072,0.875,0.069,0.453c-0.01-1.363-1.129-2.5-2.5-2.5c-1.355,0-2.51,1.137-2.5,2.5
	c0.011,1.426,0.773,2.492,2.085,3.036c0.757,0.314,1.851,0.052,2.484-0.426c0.866-0.653,1.48-1.448,2.089-2.348
	c-1.14,0.299-2.28,0.598-3.42,0.897c0.188,0.1,0.367,0.203,0.544,0.321c-0.081-0.059-0.162-0.118-0.243-0.176
	c0.187,0.199,0.145,0.138-0.125-0.185c0.02,0.036,0.039,0.071,0.059,0.107c-0.161-0.254-0.236-0.532-0.227-0.833
	c0.023,0.199-0.064,0.637,0.063-0.236c-0.091,0.626-0.288,1.196-0.31,1.843c-0.046,1.363,1.172,2.5,2.5,2.5
	C32.66,100.888,33.715,99.75,33.762,98.388L33.762,98.388z"/>
<path fill="#5E4D99" d="M94.597,13.978c-13.446,3.628-29.974,14.456-31.835,29.411c-0.397,3.194,4.607,3.156,5,0
	c1.551-12.464,17.24-21.642,28.165-24.589C99.036,17.96,97.715,13.136,94.597,13.978L94.597,13.978z"/>
<path fill="#5E4D99" d="M121.851,6.053c1.688,9.677-1.298,20.877,4.252,29.597c1.726,2.711,6.054,0.206,4.317-2.523
	c-5.063-7.955-2.184-19.435-3.748-28.403C126.119,1.551,121.301,2.9,121.851,6.053L121.851,6.053z"/>
<path fill="#5E4D99" d="M140.762,2.388c1.004,8.952,2.185,17.854,4.089,26.665c0.804-1.055,1.607-2.11,2.411-3.165
	c-2.581-0.118-5.175-0.581-7.232-2.268c-2.471-2.026-6.031,1.49-3.535,3.535c3.144,2.578,6.746,3.548,10.768,3.732
	c1.702,0.078,2.739-1.647,2.411-3.165c-1.81-8.375-2.956-16.825-3.911-25.335C145.407-0.779,140.403-0.813,140.762,2.388
	L140.762,2.388z"/>
<path fill="#5E4D99" d="M117.262,23.888c9.171-0.196,17.946-2.867,27-4c3.155-0.395,3.194-5.399,0-5c-9.037,1.13-17.859,3.804-27,4
	C114.042,18.957,114.036,23.957,117.262,23.888L117.262,23.888z"/>
<path fill="#5E4D99" d="M157.103,18.65c2.028,4.215,3.572,8.882,4.748,13.403c0.812,3.118,5.634,1.794,4.821-1.329
	c-1.286-4.942-3.036-9.989-5.252-14.597C160.023,13.221,155.712,15.759,157.103,18.65L157.103,18.65z"/>
<path fill="#5E4D99" d="M158.262,6.888c0.167,0,0.333,0.001,0.5,0.004c0.178,0.004,0.917,0.124,0.169-0.006
	c0.174,0.03,0.82,0.319,0.236,0.037c0.115,0.061,0.227,0.128,0.333,0.202c-0.229-0.179-0.23-0.169-0.006,0.03
	c0.989,0.936,2.552,0.983,3.535,0c0.943-0.943,0.99-2.599,0-3.535c-1.36-1.287-2.932-1.73-4.768-1.732
	c-1.363-0.001-2.5,1.138-2.5,2.5C155.762,5.752,156.899,6.887,158.262,6.888L158.262,6.888z"/>
</svg>
